Coordinates
version=1
nRows=5
nColumns=40
inDegrees=yes

Units are S.I. units (second, meters, Newtons, ...)
Angles are in degrees.

endheader
time	pelvis_tilt	pelvis_list	pelvis_rotation	pelvis_tx	pelvis_ty	pelvis_tz	hip_flexion_r	hip_adduction_r	hip_rotation_r	knee_angle_r	knee_angle_r_beta	ankle_angle_r	subtalar_angle_r	mtp_angle_r	hip_flexion_l	hip_adduction_l	hip_rotation_l	knee_angle_l	knee_angle_l_beta	ankle_angle_l	subtalar_angle_l	mtp_angle_l	lumbar_extension	lumbar_bending	lumbar_rotation	arm_flex_r	arm_add_r	arm_rot_r	elbow_flex_r	pro_sup_r	wrist_flex_r	wrist_dev_r	arm_flex_l	arm_add_l	arm_rot_l	elbow_flex_l	pro_sup_l	wrist_flex_l	wrist_dev_l
     43.62750000	     -3.59735678	     -4.54015651	      4.17904104	      1.07811175	      0.93122776	      0.48762446	      8.89007788	      3.03154230	    -16.02556245	     14.73287788	     14.73287788	     10.87577530	     -2.53994580	     -5.57167088	     33.53154040	    -13.83502907	      0.32698782	     52.85545336	     52.85545336	      7.88658193	    -18.85712422	     13.64940139	     -9.48579066	      4.85724485	      2.24176065	     27.50378686	    -22.37484498	     -6.09614270	     92.73905174	     44.51444815	      0.00000000	      0.00000000	     -3.44576274	     -6.48050285	     -2.11134933	     25.68721524	     44.86804842	      0.00000000	      0.00000000
     43.64100000	     -3.79910315	     -4.56090363	      4.68627898	      1.07656913	      0.93118374	      0.48723189	      8.48883975	      3.09963834	    -16.49603598	     14.08420974	     14.08420974	     10.84662772	     -2.31855684	     -5.76992383	     34.01200847	    -13.40370900	      0.25427637	     49.53778185	     49.53778185	      8.41809639	    -18.78458091	     13.86000519	     -9.50421262	      4.92524378	      2.31405605	     28.78022766	    -22.39457399	     -6.90654545	     95.54322896	     44.48066158	      0.00000000	      0.00000000	     -4.42050566	     -6.22000028	     -1.17093377	     26.11534843	     44.70373646	      0.00000000	      0.00000000
     43.65450000	     -4.02597734	     -4.45876119	      5.14200897	      1.07499972	      0.93109927	      0.48661003	      8.22720126	      2.99991848	    -16.76545118	     13.67600170	     13.67600170	     10.92080932	     -2.35453746	     -5.80452310	     34.29983678	    -12.77025353	      0.18146648	     45.96069517	     45.96069517	      8.82794735	    -18.65160510	     14.11492113	     -9.44640107	      4.84489662	      2.44886455	     30.29613092	    -22.60146606	     -7.35061142	     96.88090791	     44.46547373	      0.00000000	      0.00000000	     -5.09446440	     -5.90738712	     -0.88176064	     26.08119556	     44.64789632	      0.00000000	      0.00000000
     43.66800000	     -4.17204864	     -4.41584387	      5.61449599	      1.07346035	      0.93105004	      0.48576836	      7.82073894	      2.96382393	    -17.16457683	     13.16396117	     13.16396117	     10.96086383	     -2.17918048	     -5.90779562	     34.37941788	    -12.09343754	      0.34120638	     42.24067277	     42.24067277	      9.04414801	    -18.40997222	     14.19127223	     -9.52481293	      4.87161542	      2.43767164	     31.68023503	    -22.51617861	     -7.82384460	     98.81829405	     44.43457925	      0.00000000	      0.00000000	     -5.82786010	     -5.64607680	     -0.50203521	     26.21609840	     44.57702742	      0.00000000	      0.00000000
     43.68150000	     -4.37991507	     -4.44496988	      6.07424927	      1.07198190	      0.93068800	      0.48473471	      7.48180829	      2.95062221	    -17.85573531	     12.65210841	     12.65210841	     10.94530390	     -1.59561045	     -6.47818390	     34.41691432	    -11.46296418	      0.60415835	     38.46253414	     38.46253414	      8.65282669	    -17.98979968	     12.68501269	     -9.55581740	      4.97966942	      2.97856970	     32.38803897	    -22.87030993	     -9.07934539	    101.70835614	     44.42899648	      0.00000000	      0.00000000	     -6.62256035	     -5.58208336	      1.00716503	     27.43576401	     44.34665968	      0.00000000	      0.00000000
